<mxfile host="app.diagrams.net" modified="2022-07-09T16:08:34.853Z" agent="5.0 (Windows NT 10.0; Win64; x64) AppleWebKit/537.36 (KHTML, like Gecko) Chrome/103.0.0.0 Safari/537.36" etag="hq5dprqmU0REF0-PCYXs" version="16.1.0" type="github">
  <diagram id="GiKuL9DOXT2ytttWreTU" name="Page-1">
    <mxGraphModel dx="1038" dy="547" grid="1" gridSize="10" guides="1" tooltips="1" connect="1" arrows="1" fold="1" page="1" pageScale="1" pageWidth="850" pageHeight="1100" math="0" shadow="0">
      <root>
        <mxCell id="0" />
        <mxCell id="1" parent="0" />
        <mxCell id="HTlUz-8mrKvqnDm7YkK_-1" value="&lt;h2&gt;&lt;b&gt;Data Flow&lt;/b&gt;&lt;/h2&gt;" style="text;html=1;strokeColor=none;fillColor=none;align=center;verticalAlign=middle;whiteSpace=wrap;rounded=0;" vertex="1" parent="1">
          <mxGeometry x="368" y="10" width="115" height="30" as="geometry" />
        </mxCell>
        <mxCell id="HTlUz-8mrKvqnDm7YkK_-5" value="" style="edgeStyle=orthogonalEdgeStyle;rounded=0;orthogonalLoop=1;jettySize=auto;html=1;" edge="1" parent="1" source="HTlUz-8mrKvqnDm7YkK_-2" target="HTlUz-8mrKvqnDm7YkK_-3">
          <mxGeometry relative="1" as="geometry" />
        </mxCell>
        <mxCell id="HTlUz-8mrKvqnDm7YkK_-6" style="edgeStyle=orthogonalEdgeStyle;rounded=0;orthogonalLoop=1;jettySize=auto;html=1;entryX=0.5;entryY=0;entryDx=0;entryDy=0;" edge="1" parent="1" source="HTlUz-8mrKvqnDm7YkK_-2" target="HTlUz-8mrKvqnDm7YkK_-4">
          <mxGeometry relative="1" as="geometry" />
        </mxCell>
        <mxCell id="HTlUz-8mrKvqnDm7YkK_-2" value="Landing Page" style="rounded=0;whiteSpace=wrap;html=1;" vertex="1" parent="1">
          <mxGeometry x="240" y="170" width="140" height="40" as="geometry" />
        </mxCell>
        <mxCell id="HTlUz-8mrKvqnDm7YkK_-9" value="" style="edgeStyle=orthogonalEdgeStyle;rounded=0;orthogonalLoop=1;jettySize=auto;html=1;" edge="1" parent="1" source="HTlUz-8mrKvqnDm7YkK_-3" target="HTlUz-8mrKvqnDm7YkK_-8">
          <mxGeometry relative="1" as="geometry" />
        </mxCell>
        <mxCell id="HTlUz-8mrKvqnDm7YkK_-3" value="Registration Page" style="rounded=0;whiteSpace=wrap;html=1;" vertex="1" parent="1">
          <mxGeometry x="170" y="250" width="120" height="40" as="geometry" />
        </mxCell>
        <mxCell id="HTlUz-8mrKvqnDm7YkK_-11" value="" style="edgeStyle=orthogonalEdgeStyle;rounded=0;orthogonalLoop=1;jettySize=auto;html=1;" edge="1" parent="1" source="HTlUz-8mrKvqnDm7YkK_-4" target="HTlUz-8mrKvqnDm7YkK_-10">
          <mxGeometry relative="1" as="geometry">
            <Array as="points">
              <mxPoint x="420" y="330" />
              <mxPoint x="420" y="330" />
            </Array>
          </mxGeometry>
        </mxCell>
        <mxCell id="HTlUz-8mrKvqnDm7YkK_-21" value="" style="edgeStyle=orthogonalEdgeStyle;rounded=0;orthogonalLoop=1;jettySize=auto;html=1;" edge="1" parent="1" source="HTlUz-8mrKvqnDm7YkK_-4" target="HTlUz-8mrKvqnDm7YkK_-2">
          <mxGeometry relative="1" as="geometry" />
        </mxCell>
        <mxCell id="HTlUz-8mrKvqnDm7YkK_-22" value="" style="edgeStyle=orthogonalEdgeStyle;rounded=0;orthogonalLoop=1;jettySize=auto;html=1;" edge="1" parent="1" source="HTlUz-8mrKvqnDm7YkK_-4" target="HTlUz-8mrKvqnDm7YkK_-2">
          <mxGeometry relative="1" as="geometry" />
        </mxCell>
        <mxCell id="HTlUz-8mrKvqnDm7YkK_-4" value="Login Page" style="rounded=0;whiteSpace=wrap;html=1;" vertex="1" parent="1">
          <mxGeometry x="350" y="250" width="120" height="40" as="geometry" />
        </mxCell>
        <mxCell id="HTlUz-8mrKvqnDm7YkK_-8" value="User Registration Service" style="rounded=0;whiteSpace=wrap;html=1;" vertex="1" parent="1">
          <mxGeometry x="170" y="380" width="120" height="50" as="geometry" />
        </mxCell>
        <mxCell id="HTlUz-8mrKvqnDm7YkK_-16" value="" style="edgeStyle=orthogonalEdgeStyle;rounded=0;orthogonalLoop=1;jettySize=auto;html=1;" edge="1" parent="1" source="HTlUz-8mrKvqnDm7YkK_-10" target="HTlUz-8mrKvqnDm7YkK_-4">
          <mxGeometry relative="1" as="geometry">
            <Array as="points">
              <mxPoint x="400" y="330" />
              <mxPoint x="400" y="330" />
            </Array>
          </mxGeometry>
        </mxCell>
        <mxCell id="HTlUz-8mrKvqnDm7YkK_-10" value="User Login Service" style="rounded=0;whiteSpace=wrap;html=1;" vertex="1" parent="1">
          <mxGeometry x="350" y="380" width="120" height="50" as="geometry" />
        </mxCell>
        <mxCell id="HTlUz-8mrKvqnDm7YkK_-12" value="MongoDB" style="shape=cylinder3;whiteSpace=wrap;html=1;boundedLbl=1;backgroundOutline=1;size=15;" vertex="1" parent="1">
          <mxGeometry x="185" y="490" width="90" height="60" as="geometry" />
        </mxCell>
        <mxCell id="HTlUz-8mrKvqnDm7YkK_-14" value="MySQL" style="shape=cylinder3;whiteSpace=wrap;html=1;boundedLbl=1;backgroundOutline=1;size=15;" vertex="1" parent="1">
          <mxGeometry x="365" y="490" width="90" height="60" as="geometry" />
        </mxCell>
        <mxCell id="HTlUz-8mrKvqnDm7YkK_-17" value="user&lt;br&gt;details" style="text;html=1;align=center;verticalAlign=middle;resizable=0;points=[];autosize=1;strokeColor=none;fillColor=none;" vertex="1" parent="1">
          <mxGeometry x="225" y="325" width="50" height="30" as="geometry" />
        </mxCell>
        <mxCell id="HTlUz-8mrKvqnDm7YkK_-18" value="JWT" style="text;html=1;align=center;verticalAlign=middle;resizable=0;points=[];autosize=1;strokeColor=none;fillColor=none;" vertex="1" parent="1">
          <mxGeometry x="360" y="330" width="40" height="20" as="geometry" />
        </mxCell>
        <mxCell id="HTlUz-8mrKvqnDm7YkK_-19" value="credentials" style="text;html=1;align=center;verticalAlign=middle;resizable=0;points=[];autosize=1;strokeColor=none;fillColor=none;" vertex="1" parent="1">
          <mxGeometry x="415" y="330" width="70" height="20" as="geometry" />
        </mxCell>
        <mxCell id="HTlUz-8mrKvqnDm7YkK_-56" style="edgeStyle=orthogonalEdgeStyle;rounded=0;orthogonalLoop=1;jettySize=auto;html=1;entryX=0.5;entryY=0;entryDx=0;entryDy=0;shadow=0;" edge="1" parent="1" source="HTlUz-8mrKvqnDm7YkK_-20" target="HTlUz-8mrKvqnDm7YkK_-38">
          <mxGeometry relative="1" as="geometry">
            <Array as="points">
              <mxPoint x="80" y="90" />
            </Array>
          </mxGeometry>
        </mxCell>
        <mxCell id="HTlUz-8mrKvqnDm7YkK_-59" style="edgeStyle=orthogonalEdgeStyle;rounded=0;orthogonalLoop=1;jettySize=auto;html=1;entryX=0.5;entryY=0;entryDx=0;entryDy=0;shadow=0;" edge="1" parent="1" source="HTlUz-8mrKvqnDm7YkK_-20" target="HTlUz-8mrKvqnDm7YkK_-34">
          <mxGeometry relative="1" as="geometry" />
        </mxCell>
        <mxCell id="HTlUz-8mrKvqnDm7YkK_-60" style="edgeStyle=orthogonalEdgeStyle;rounded=0;orthogonalLoop=1;jettySize=auto;html=1;entryX=0.5;entryY=0;entryDx=0;entryDy=0;shadow=0;" edge="1" parent="1" source="HTlUz-8mrKvqnDm7YkK_-20" target="HTlUz-8mrKvqnDm7YkK_-37">
          <mxGeometry relative="1" as="geometry" />
        </mxCell>
        <mxCell id="HTlUz-8mrKvqnDm7YkK_-20" value="Product List/Home page" style="rounded=0;whiteSpace=wrap;html=1;" vertex="1" parent="1">
          <mxGeometry x="620" y="80" width="120" height="40" as="geometry" />
        </mxCell>
        <mxCell id="HTlUz-8mrKvqnDm7YkK_-57" style="edgeStyle=orthogonalEdgeStyle;rounded=0;orthogonalLoop=1;jettySize=auto;html=1;entryX=0;entryY=0.5;entryDx=0;entryDy=0;shadow=0;" edge="1" parent="1" source="HTlUz-8mrKvqnDm7YkK_-24" target="HTlUz-8mrKvqnDm7YkK_-20">
          <mxGeometry relative="1" as="geometry">
            <Array as="points">
              <mxPoint x="500" y="405" />
              <mxPoint x="500" y="100" />
            </Array>
          </mxGeometry>
        </mxCell>
        <mxCell id="HTlUz-8mrKvqnDm7YkK_-65" style="edgeStyle=orthogonalEdgeStyle;rounded=0;orthogonalLoop=1;jettySize=auto;html=1;entryX=0.5;entryY=1;entryDx=0;entryDy=0;shadow=0;" edge="1" parent="1" source="HTlUz-8mrKvqnDm7YkK_-24" target="HTlUz-8mrKvqnDm7YkK_-37">
          <mxGeometry relative="1" as="geometry" />
        </mxCell>
        <mxCell id="HTlUz-8mrKvqnDm7YkK_-24" value="Product mgmt" style="rounded=0;whiteSpace=wrap;html=1;" vertex="1" parent="1">
          <mxGeometry x="530" y="380" width="120" height="50" as="geometry" />
        </mxCell>
        <mxCell id="HTlUz-8mrKvqnDm7YkK_-28" value="MongoDB" style="shape=cylinder3;whiteSpace=wrap;html=1;boundedLbl=1;backgroundOutline=1;size=15;" vertex="1" parent="1">
          <mxGeometry x="545" y="490" width="90" height="60" as="geometry" />
        </mxCell>
        <mxCell id="HTlUz-8mrKvqnDm7YkK_-30" value="" style="endArrow=classic;startArrow=classic;html=1;rounded=0;entryX=0.5;entryY=1;entryDx=0;entryDy=0;" edge="1" parent="1" target="HTlUz-8mrKvqnDm7YkK_-8">
          <mxGeometry width="50" height="50" relative="1" as="geometry">
            <mxPoint x="230" y="490" as="sourcePoint" />
            <mxPoint x="275" y="450" as="targetPoint" />
          </mxGeometry>
        </mxCell>
        <mxCell id="HTlUz-8mrKvqnDm7YkK_-31" value="" style="endArrow=classic;startArrow=classic;html=1;rounded=0;entryX=0.5;entryY=1;entryDx=0;entryDy=0;" edge="1" parent="1">
          <mxGeometry width="50" height="50" relative="1" as="geometry">
            <mxPoint x="409.5" y="490" as="sourcePoint" />
            <mxPoint x="409.5" y="430" as="targetPoint" />
          </mxGeometry>
        </mxCell>
        <mxCell id="HTlUz-8mrKvqnDm7YkK_-32" value="" style="endArrow=classic;startArrow=classic;html=1;rounded=0;entryX=0.5;entryY=1;entryDx=0;entryDy=0;" edge="1" parent="1">
          <mxGeometry width="50" height="50" relative="1" as="geometry">
            <mxPoint x="589.5" y="490" as="sourcePoint" />
            <mxPoint x="589.5" y="430" as="targetPoint" />
          </mxGeometry>
        </mxCell>
        <mxCell id="HTlUz-8mrKvqnDm7YkK_-64" style="edgeStyle=orthogonalEdgeStyle;rounded=0;orthogonalLoop=1;jettySize=auto;html=1;entryX=0.5;entryY=0;entryDx=0;entryDy=0;shadow=0;" edge="1" parent="1" source="HTlUz-8mrKvqnDm7YkK_-34" target="HTlUz-8mrKvqnDm7YkK_-24">
          <mxGeometry relative="1" as="geometry" />
        </mxCell>
        <mxCell id="HTlUz-8mrKvqnDm7YkK_-34" value="Product Upload Page" style="rounded=0;whiteSpace=wrap;html=1;" vertex="1" parent="1">
          <mxGeometry x="530" y="180" width="120" height="40" as="geometry" />
        </mxCell>
        <mxCell id="HTlUz-8mrKvqnDm7YkK_-37" value="Product" style="rounded=0;whiteSpace=wrap;html=1;" vertex="1" parent="1">
          <mxGeometry x="710" y="180" width="120" height="40" as="geometry" />
        </mxCell>
        <mxCell id="HTlUz-8mrKvqnDm7YkK_-40" value="" style="edgeStyle=orthogonalEdgeStyle;rounded=0;orthogonalLoop=1;jettySize=auto;html=1;" edge="1" parent="1" source="HTlUz-8mrKvqnDm7YkK_-38" target="HTlUz-8mrKvqnDm7YkK_-39">
          <mxGeometry relative="1" as="geometry" />
        </mxCell>
        <mxCell id="HTlUz-8mrKvqnDm7YkK_-38" value="Profile Update Page" style="rounded=0;whiteSpace=wrap;html=1;" vertex="1" parent="1">
          <mxGeometry x="20" y="250" width="120" height="40" as="geometry" />
        </mxCell>
        <mxCell id="HTlUz-8mrKvqnDm7YkK_-39" value="Profile mgmt service" style="rounded=0;whiteSpace=wrap;html=1;" vertex="1" parent="1">
          <mxGeometry x="20" y="380" width="120" height="50" as="geometry" />
        </mxCell>
        <mxCell id="HTlUz-8mrKvqnDm7YkK_-41" value="" style="rounded=0;whiteSpace=wrap;html=1;fillColor=#fff2cc;strokeColor=#d6b656;" vertex="1" parent="1">
          <mxGeometry y="590" width="1020" height="60" as="geometry" />
        </mxCell>
        <mxCell id="HTlUz-8mrKvqnDm7YkK_-52" style="edgeStyle=orthogonalEdgeStyle;rounded=0;orthogonalLoop=1;jettySize=auto;html=1;entryX=0.917;entryY=1;entryDx=0;entryDy=0;entryPerimeter=0;shadow=0;" edge="1" parent="1" source="HTlUz-8mrKvqnDm7YkK_-49" target="HTlUz-8mrKvqnDm7YkK_-8">
          <mxGeometry relative="1" as="geometry" />
        </mxCell>
        <mxCell id="HTlUz-8mrKvqnDm7YkK_-49" value="Topic" style="ellipse;whiteSpace=wrap;html=1;" vertex="1" parent="1">
          <mxGeometry x="20" y="600" width="120" height="40" as="geometry" />
        </mxCell>
        <mxCell id="HTlUz-8mrKvqnDm7YkK_-51" style="edgeStyle=orthogonalEdgeStyle;rounded=0;orthogonalLoop=1;jettySize=auto;html=1;entryX=0.5;entryY=0;entryDx=0;entryDy=0;shadow=0;" edge="1" parent="1" source="HTlUz-8mrKvqnDm7YkK_-39" target="HTlUz-8mrKvqnDm7YkK_-49">
          <mxGeometry relative="1" as="geometry" />
        </mxCell>
        <mxCell id="HTlUz-8mrKvqnDm7YkK_-58" value="Product Details" style="text;html=1;align=center;verticalAlign=middle;resizable=0;points=[];autosize=1;strokeColor=none;fillColor=none;" vertex="1" parent="1">
          <mxGeometry x="400" y="130" width="100" height="20" as="geometry" />
        </mxCell>
        <mxCell id="HTlUz-8mrKvqnDm7YkK_-66" value="Recommendation" style="rounded=0;whiteSpace=wrap;html=1;" vertex="1" parent="1">
          <mxGeometry x="880" y="180" width="120" height="40" as="geometry" />
        </mxCell>
        <mxCell id="HTlUz-8mrKvqnDm7YkK_-68" value="Recommendation mgmt" style="rounded=0;whiteSpace=wrap;html=1;" vertex="1" parent="1">
          <mxGeometry x="880" y="380" width="120" height="50" as="geometry" />
        </mxCell>
        <mxCell id="HTlUz-8mrKvqnDm7YkK_-69" value="Neo4j" style="shape=cylinder3;whiteSpace=wrap;html=1;boundedLbl=1;backgroundOutline=1;size=15;" vertex="1" parent="1">
          <mxGeometry x="895" y="490" width="90" height="60" as="geometry" />
        </mxCell>
        <mxCell id="HTlUz-8mrKvqnDm7YkK_-70" value="" style="endArrow=classic;startArrow=classic;html=1;rounded=0;entryX=0.5;entryY=1;entryDx=0;entryDy=0;" edge="1" parent="1">
          <mxGeometry width="50" height="50" relative="1" as="geometry">
            <mxPoint x="939.5" y="490" as="sourcePoint" />
            <mxPoint x="939.5" y="430" as="targetPoint" />
          </mxGeometry>
        </mxCell>
      </root>
    </mxGraphModel>
  </diagram>
</mxfile>
